<svg
class="jsx-2263963463 artboard"

>
<svg
  viewBox="-98.85180169386328 -26.500000000000014 161.24653853596857 87.66081338741579"
  xmlns="http://www.w3.org/2000/svg"
  xmlns:xlink="http://www.w3.org/1999/xlink"
  version="1.1"
  class="jsx-2263963463 artboard-inner"
  
>
  <g
    transform="translate(-0.8157894736842108 -3.578947368421055) scale(0.36549707602339193)"
    fill='#000'
  >
    <g id="line1">
      <path d="M59.112-31.248C57.600-34.704 55.512-37.800 52.704-40.608C50.256-43.056 47.448-45.072 44.280-46.512C45.504-48.168 46.296-50.256 46.296-52.632C46.296-58.320 41.832-62.712 36.288-62.712L17.064-62.712L17.064-56.088L36.288-56.088C38.160-56.088 39.672-54.576 39.672-52.704C39.672-50.760 38.160-49.248 36.288-49.248L28.368-49.248L28.368-55.152L21.744-55.152L21.744 0L28.368 0L28.368-42.624L32.832-42.624C38.592-42.336 43.992-40.032 48.096-36.000C52.488-31.608 54.720-25.920 54.720-19.728C54.720-13.608 52.488-7.848 48.096-3.528C43.704 0.864 37.944 3.240 31.824 3.240C25.704 3.240 19.944 0.864 15.552-3.528C11.232-7.848 8.928-13.608 8.928-19.728C8.928-24.408 10.440-29.088 13.608-33.624L8.136-37.368C4.320-31.824 2.232-25.704 2.232-19.728C2.232-15.696 3.096-11.736 4.608-8.136C6.120-4.824 8.208-1.512 10.944 1.152C13.680 3.888 16.920 6.048 20.304 7.560C23.904 9.072 27.792 9.792 31.824 9.792C35.928 9.792 39.744 9.072 43.344 7.560C46.800 6.048 49.968 3.888 52.704 1.152C55.584-1.656 57.672-4.752 59.112-8.136C60.624-11.736 61.416-15.624 61.416-19.728C61.416-23.760 60.624-27.576 59.112-31.176Z"></path>
      <path d="M78.696-52.848L66.960-52.848L66.960 0L73.440 0L73.440-12.960L77.472-12.960L82.296 0L89.136 0L84.240-13.752C92.664-16.056 98.568-23.688 98.568-32.760L98.568-33.048C98.568-43.920 89.640-52.848 78.696-52.848ZM92.160-32.760C92.160-25.272 85.752-19.440 78.696-19.440L73.440-19.440L73.440-46.368L78.696-46.368C86.184-46.368 92.160-40.104 92.160-33.048Z"></path>
      <path d="M109.944-44.856L109.944-52.848L103.464-52.848L103.464-44.856ZM103.464-41.472L103.464 0L109.944 0L109.944-41.472Z"></path>
      <path d="M133.128-52.848L133.128-47.664L121.392-52.848L115.776-52.848L115.776 0L122.184 0L122.184-45.288L133.128-40.464L133.128 0L139.608 0L139.608-52.848Z"></path>
      <path d="M172.944-46.368L172.944-52.848C157.104-52.848 144.360-41.760 144.360-26.568C144.360-11.376 157.104 0 172.944 0L172.944-19.512L166.464-19.512L166.464-7.128C157.248-9.360 150.768-17.352 150.768-26.568C150.768-38.376 160.920-46.368 172.944-46.368Z"></path>
    </g>
  </g>
  <g
    transform="translate(-0.42105263157894757 29.66081338741576) scale(0.36549707602339193)"
    fill='#000'
  >
    <g id="line2">
      <path d="M21.024-56.088C23.400-56.736 24.912-57.312 27.144-58.104C31.032-59.544 34.776-60.768 37.728-60.912C40.896-61.056 44.064-59.688 47.736-56.736L51.840-61.776C47.016-65.808 42.336-67.608 37.368-67.464C33.336-67.392 29.520-65.952 25.416-64.512C21.240-62.928 16.920-61.416 12.168-61.416C9.864-61.416 6.984-61.848 3.456-63.144L1.152-56.952C5.472-55.440 9.144-54.792 12.096-54.792C12.888-54.792 13.680-54.792 14.400-54.864L14.400 0L21.024 0Z"></path>
      <path d="M46.368-52.848L46.368-19.296C44.424-18.504 42.840-17.928 40.968-17.208C38.952-18.000 37.368-18.504 35.352-19.296L35.352-52.848L28.944-52.848L28.944 0L35.352 0L35.352-12.384L40.968-10.224L46.368-12.384L46.368 0L52.848 0L52.848-52.848Z"></path>
      <path d="M75.816-46.368L75.816-52.848L59.400-52.848L59.400 0L75.816 0L75.816-6.480L65.880-6.480L65.880-13.104L71.856-13.104L71.856-19.584L65.880-19.584L65.880-46.368Z"></path>
    </g>
  </g>
  <g
    transform="translate(-0.8157894736842108 57.58186601899472) scale(0.36549707602339193)"
    fill='#000'
  >
    <g id="line3">
      <path d="M59.112-31.248C57.600-34.704 55.512-37.800 52.704-40.608C50.256-43.056 47.448-45.072 44.280-46.512C45.504-48.168 46.296-50.256 46.296-52.632C46.296-58.320 41.832-62.712 36.288-62.712L17.064-62.712L17.064-56.088L36.288-56.088C38.160-56.088 39.672-54.576 39.672-52.704C39.672-50.760 38.160-49.248 36.288-49.248L28.368-49.248L28.368-55.152L21.744-55.152L21.744 0L28.368 0L28.368-42.624L32.832-42.624C38.592-42.336 43.992-40.032 48.096-36.000C52.488-31.608 54.720-25.920 54.720-19.728C54.720-13.608 52.488-7.848 48.096-3.528C43.704 0.864 37.944 3.240 31.824 3.240C25.704 3.240 19.944 0.864 15.552-3.528C11.232-7.848 8.928-13.608 8.928-19.728C8.928-24.408 10.440-29.088 13.608-33.624L8.136-37.368C4.320-31.824 2.232-25.704 2.232-19.728C2.232-15.696 3.096-11.736 4.608-8.136C6.120-4.824 8.208-1.512 10.944 1.152C13.680 3.888 16.920 6.048 20.304 7.560C23.904 9.072 27.792 9.792 31.824 9.792C35.928 9.792 39.744 9.072 43.344 7.560C46.800 6.048 49.968 3.888 52.704 1.152C55.584-1.656 57.672-4.752 59.112-8.136C60.624-11.736 61.416-15.624 61.416-19.728C61.416-23.760 60.624-27.576 59.112-31.176Z"></path>
      <path d="M82.584-52.848L76.392-52.848L64.872 0L71.496 0C72.360-3.744 73.440-8.280 74.232-12.240L79.488-10.224L84.528-12.240L87.192 0L93.744 0ZM79.488-17.136C78.120-17.640 76.896-18.288 75.600-18.792C76.968-25.056 78.120-30.168 79.488-36.216C81.072-28.656 81.648-25.848 83.160-18.648Z"></path>
      <path d="M111.024-52.848L99.288-52.848L99.288 0L105.768 0L105.768-12.960L109.800-12.960L114.624 0L121.464 0L116.568-13.752C124.992-16.056 130.896-23.688 130.896-32.760L130.896-33.048C130.896-43.920 121.968-52.848 111.024-52.848ZM124.488-32.760C124.488-25.272 118.080-19.440 111.024-19.440L105.768-19.440L105.768-46.368L111.024-46.368C118.512-46.368 124.488-40.104 124.488-33.048Z"></path>
    </g>
  </g>
  <g
    transform="translate(-118.96483141271517 -35.572513874238226) scale(3.3064325354966315)"
    id="logomark"
  >
    <g fill='#000'>
      <path d="M29.931 3.703L26.255 5.21l-1.185.553C23.427 4.222 19.615 3.5 16 3.5c-4.726 0-9.8 1.228-9.907 3.916-.001.028-.01.055-.01.084 0 .542.202 1.025.562 1.452l8.855 9.741v5.815h-.001c-.008.758-1.119 1.991-3.167 1.991 1.475 0 2.167-1.094 2.169-1.935C11.914 24.788 10 25.567 10 26.5c0 1.105 2.687 2 6 2 3.314 0 6-.895 6-2 0-.933-1.913-1.712-4.5-1.935.001.841.694 1.935 2.169 1.935-2.049 0-3.16-1.233-3.167-1.991H16.5v-5.815l8.828-9.711V8.98a.002.002 0 0 0-.002.002c.375-.435.591-.926.591-1.482 0-.029-.009-.056-.01-.084-.021-.508-.219-.963-.559-1.369l1.064-.497 3.519-1.847zM7.468 8.371c-.249-.276-.385-.568-.385-.871 0-1.657 3.992-3 8.917-3 3.572 0 6.646.709 8.069 1.73l-5.932 2.767c-.491-.701-1.781-.825-3.024-.245-.838.391-1.438 1.004-1.677 1.616-2.812-.285-5.046-1.019-5.934-1.958l-.034-.039zm5.798 2.975l-2.094 1.1-1.669-1.836c1.109.36 2.411.595 3.763.736zm6.694 2.055c-.202-.505-1.887-.901-3.96-.901s-3.758.396-3.96.901l-.86-.946 2.3-.943c.461.749 1.785.893 3.061.299a4.12 4.12 0 0 0 .593-.347c1.917-.08 3.819-.353 5.364-.854l-2.538 2.791zM24.917 7.5c0 .303-.137.596-.386.872l-.033.037c-.934.989-3.358 1.747-6.377 1.996.191-.364.264-.735.175-1.068l6.096-2.843c.334.315.525.652.525 1.006z"></path>
    </g>
  </g>
</svg>
</svg>